REM DIRINDEX 1\2,1\3,1\4,1\5
REM DIRNAME "folder01","folder02","folder03","folder04","folder05"
TITLE ""
FILE "1Q_t_0839-0848.mp3" MP3
  TRACK 01 AUDIO
    TITLE "3:cjc172_3467"
    INDEX 01 00:00:00
  TRACK 02 AUDIO
    TITLE "0:"
    INDEX 01 00:01:08
  TRACK 03 AUDIO
    TITLE "4:cjc172_3468"
    INDEX 01 00:01:18
  TRACK 04 AUDIO
    TITLE "0:"
    INDEX 01 00:04:24
  TRACK 05 AUDIO
    TITLE "5:cjc172_3469"
    INDEX 01 00:04:32
  TRACK 06 AUDIO
    TITLE "0:"
    INDEX 01 00:10:40
  TRACK 07 AUDIO
    TITLE "3:cjc172_3470"
    INDEX 01 00:11:12
  TRACK 08 AUDIO
    TITLE "0:"
    INDEX 01 00:12:21
  TRACK 09 AUDIO
    TITLE "4:cjc172_3471"
    INDEX 01 00:12:35
  TRACK 10 AUDIO
    TITLE "0:"
    INDEX 01 00:13:38
  TRACK 11 AUDIO
    TITLE "5:cjc172_3472"
    INDEX 01 00:13:46
  TRACK 12 AUDIO
    TITLE "0:"
    INDEX 01 00:20:68
  TRACK 13 AUDIO
    TITLE "3:cjc172_3473"
    INDEX 01 00:21:36
  TRACK 14 AUDIO
    TITLE "0:"
    INDEX 01 00:22:45
  TRACK 15 AUDIO
    TITLE "4:cjc172_3474"
    INDEX 01 00:22:53
  TRACK 16 AUDIO
    TITLE "0:"
    INDEX 01 00:25:46
  TRACK 17 AUDIO
    TITLE "5:cjc172_3475"
    INDEX 01 00:25:51
  TRACK 18 AUDIO
    TITLE "0:"
    INDEX 01 00:32:32
  TRACK 19 AUDIO
    TITLE "3:cjc172_3476"
    INDEX 01 00:32:75
  TRACK 20 AUDIO
    TITLE "0:"
    INDEX 01 00:34:07
  TRACK 21 AUDIO
    TITLE "4:cjc172_3477"
    INDEX 01 00:34:17
  TRACK 22 AUDIO
    TITLE "0:"
    INDEX 01 00:36:10
  TRACK 23 AUDIO
    TITLE "5:cjc172_3478"
    INDEX 01 00:36:18
  TRACK 24 AUDIO
    TITLE "0:"
    INDEX 01 00:42:36
  TRACK 25 AUDIO
    TITLE "3:cjc172_3479"
    INDEX 01 00:43:08
  TRACK 26 AUDIO
    TITLE "0:"
    INDEX 01 00:44:35
  TRACK 27 AUDIO
    TITLE "4:cjc172_3480"
    INDEX 01 00:44:43
  TRACK 28 AUDIO
    TITLE "0:"
    INDEX 01 00:46:38
  TRACK 29 AUDIO
    TITLE "5:cjc172_3481"
    INDEX 01 00:46:46
  TRACK 30 AUDIO
    TITLE "0:"
    INDEX 01 00:51:19
  TRACK 31 AUDIO
    TITLE "3:cjc172_3482"
    INDEX 01 00:51:64
  TRACK 32 AUDIO
    TITLE "0:"
    INDEX 01 00:53:07
  TRACK 33 AUDIO
    TITLE "4:cjc172_3483"
    INDEX 01 00:53:16
  TRACK 34 AUDIO
    TITLE "0:"
    INDEX 01 00:56:19
  TRACK 35 AUDIO
    TITLE "5:cjc172_3484"
    INDEX 01 00:56:26
  TRACK 36 AUDIO
    TITLE "0:"
    INDEX 01 01:02:70
  TRACK 37 AUDIO
    TITLE "3:cjc172_3485"
    INDEX 01 01:03:40
  TRACK 38 AUDIO
    TITLE "0:"
    INDEX 01 01:04:49
  TRACK 39 AUDIO
    TITLE "4:cjc172_3486"
    INDEX 01 01:04:59
  TRACK 40 AUDIO
    TITLE "0:"
    INDEX 01 01:07:13
  TRACK 41 AUDIO
    TITLE "5:cjc172_3487"
    INDEX 01 01:07:20
  TRACK 42 AUDIO
    TITLE "0:"
    INDEX 01 01:12:04
  TRACK 43 AUDIO
    TITLE "3:cjc172_3488"
    INDEX 01 01:12:49
  TRACK 44 AUDIO
    TITLE "0:"
    INDEX 01 01:13:60
  TRACK 45 AUDIO
    TITLE "4:cjc172_3489"
    INDEX 01 01:13:68
  TRACK 46 AUDIO
    TITLE "0:"
    INDEX 01 01:15:59
  TRACK 47 AUDIO
    TITLE "5:cjc172_3490"
    INDEX 01 01:15:65
  TRACK 48 AUDIO
    TITLE "0:"
    INDEX 01 01:21:70
  TRACK 49 AUDIO
    TITLE "3:cjc172_3491"
    INDEX 01 01:22:40
  TRACK 50 AUDIO
    TITLE "0:"
    INDEX 01 01:23:72
  TRACK 51 AUDIO
    TITLE "4:cjc172_3492"
    INDEX 01 01:24:05
  TRACK 52 AUDIO
    TITLE "0:"
    INDEX 01 01:27:04
  TRACK 53 AUDIO
    TITLE "5:cjc172_3493"
    INDEX 01 01:27:11
  TRACK 54 AUDIO
    TITLE "0:"
    INDEX 01 01:32:48
  TRACK 55 AUDIO
    TITLE "3:cjc172_3494"
    INDEX 01 01:33:18
  TRACK 56 AUDIO
    TITLE "0:"
    INDEX 01 01:34:45
  TRACK 57 AUDIO
    TITLE "4:cjc172_3495"
    INDEX 01 01:34:54
  TRACK 58 AUDIO
    TITLE "0:"
    INDEX 01 01:36:44
  TRACK 59 AUDIO
    TITLE "5:cjc172_3496"
    INDEX 01 01:36:53
  TRACK 60 AUDIO
    TITLE "0:"
    INDEX 01 01:42:36
